<svg width="22" height="19" fill="none" xmlns="http://www.w3.org/2000/svg"><path fill-rule="evenodd" clip-rule="evenodd" d="M19.175 2.7934c-1.6454-1.627-4.3175-1.6287-5.9651-.0052l-2.2181 2.238-2.2413-2.216c-1.65-1.6477-4.3174-1.6396-5.9368-.0224l-.0055.0056c-.7926.7837-1.2185 1.8229-1.2185 2.9516 0 1.1122.437 2.16 1.2247 2.9577l8.166 8.0743 8.1946-8.1027c1.6502-1.6317 1.6421-4.2733.0056-5.8754l-.0056-.0055ZM10.9804 19 1.6841 9.808C.6063 8.7202 0 7.277 0 5.745c0-1.532.5838-2.9752 1.6841-4.0631C3.9217-.5528 7.5864-.5606 9.8562 1.6804l.0239.0237 1.1003 1.0879 1.1002-1.1101a7.3254 7.3254 0 0 1 .0126-.0125c2.269-2.23 5.9421-2.2259 8.2059.0125 2.2679 2.2202 2.2679 5.8615 0 8.104L10.9804 19Z" fill="#000"/></svg>